<svg width="14" height="14" viewBox="0 0 14 14" fill="none" xmlns="http://www.w3.org/2000/svg">
<path d="M12.9458 5.48178H6.70053V8.07003H10.2945C9.96003 9.71478 8.55978 10.6598 6.70053 10.6598C6.18028 10.6607 5.66498 10.5588 5.18417 10.3601C4.70336 10.1614 4.26651 9.86977 3.89867 9.50186C3.53083 9.13395 3.23925 8.69705 3.04063 8.2162C2.84202 7.73535 2.74029 7.22003 2.74128 6.69978C2.74039 6.17959 2.84219 5.66435 3.04085 5.18359C3.23951 4.70283 3.53111 4.26601 3.89894 3.89818C4.26676 3.53036 4.70358 3.23875 5.18434 3.0401C5.6651 2.84144 6.18035 2.73964 6.70053 2.74053C7.64478 2.74053 8.49828 3.07578 9.16803 3.62403L11.118 1.67478C9.93003 0.639029 8.40678 2.85435e-05 6.70053 2.85435e-05C5.81989 -0.00254559 4.94742 0.169011 4.13332 0.504831C3.31921 0.840651 2.57953 1.33411 1.95682 1.95682C1.33411 2.57953 0.840653 3.31921 0.504833 4.13332C0.169013 4.94742 -0.00254334 5.81988 3.07884e-05 6.70053C-0.00264288 7.5812 0.168846 8.45371 0.50463 9.26786C0.840415 10.082 1.33387 10.8217 1.9566 11.4445C2.57933 12.0672 3.31905 12.5606 4.1332 12.8964C4.94735 13.2322 5.81986 13.4037 6.70053 13.401C10.0508 13.401 13.0973 10.9643 13.0973 6.70053C13.0973 6.30453 13.0365 5.87778 12.9458 5.48178Z" fill="white"/>
</svg>
