<svg width="25" height="20" viewBox="0 0 25 20" fill="none" xmlns="http://www.w3.org/2000/svg">
<path fill-rule="evenodd" clip-rule="evenodd" d="M24.1306 0.363727C24.427 0.608201 24.5274 0.97111 24.389 1.29744L16.7507 19.2974C16.6029 19.6457 16.2123 19.8843 15.7653 19.8994C15.3183 19.9144 14.9054 19.7029 14.7237 19.3656L10.5294 11.582L1.09235 8.12255C0.683507 7.97268 0.427011 7.63215 0.445248 7.26344C0.463486 6.89473 0.752762 6.57256 1.17505 6.45065L22.9986 0.15065C23.3942 0.0364353 23.8342 0.119253 24.1306 0.363727ZM12.6576 11.0994L15.6001 16.5602L20.7495 4.42524L12.6576 11.0994ZM19.2064 3.15245L4.49378 7.39967L11.1144 9.82665L19.2064 3.15245Z" fill="white"/>
</svg>
